<?xml version="1.0" encoding="iso-8859-1"?>
<!-- Generator: Adobe Illustrator 19.0.0, SVG Export Plug-In . SVG Version: 6.00 Build 0)  -->
<svg version="1.1" id="Layer_1" xmlns="http://www.w3.org/2000/svg" xmlns:xlink="http://www.w3.org/1999/xlink" x="0px" y="0px"
	 viewBox="0 0 242.133 242.133" style="enable-background:new 0 0 242.133 242.133;" xml:space="preserve">
<path id="XMLID_2_" d="M227.133,0h-53.033c-6.067,0-11.536,3.655-13.858,9.26c-2.321,5.605-1.038,12.057,3.252,16.347l15.91,15.91
	L4.393,216.526c-5.858,5.857-5.858,15.355,0,21.213c2.929,2.929,6.767,4.394,10.606,4.394c3.838,0,7.678-1.465,10.607-4.394
	L200.616,62.73l15.91,15.91c2.87,2.87,6.706,4.394,10.609,4.394c1.933,0,3.882-0.374,5.737-1.142
	c5.605-2.322,9.26-7.791,9.26-13.858V15C242.133,6.716,235.417,0,227.133,0z"/>
<g>
</g>
<g>
</g>
<g>
</g>
<g>
</g>
<g>
</g>
<g>
</g>
<g>
</g>
<g>
</g>
<g>
</g>
<g>
</g>
<g>
</g>
<g>
</g>
<g>
</g>
<g>
</g>
<g>
</g>
</svg>
